<mxfile host="app.diagrams.net" modified="2023-09-26T00:07:47.946Z" agent="Mozilla/5.0 (Windows NT 10.0; Win64; x64; rv:109.0) Gecko/20100101 Firefox/117.0" etag="Na-a5rlkTDVbjmJCTyW1" version="21.8.2" type="device">
  <diagram name="Página-1" id="AuAjSazsXVJ3ZuVs6Ohb">
    <mxGraphModel dx="1434" dy="774" grid="1" gridSize="10" guides="1" tooltips="1" connect="1" arrows="1" fold="1" page="1" pageScale="1" pageWidth="827" pageHeight="1169" math="0" shadow="0">
      <root>
        <mxCell id="0" />
        <mxCell id="1" parent="0" />
        <mxCell id="9c-LMhL3wqEWrk_R_9PE-1" value="" style="rounded=1;whiteSpace=wrap;html=1;arcSize=17;" vertex="1" parent="1">
          <mxGeometry x="210" y="80" width="500" height="615" as="geometry" />
        </mxCell>
        <mxCell id="9c-LMhL3wqEWrk_R_9PE-3" value="&amp;lt;&amp;lt;interface&amp;gt;&amp;gt;&lt;br&gt;Reprodutor musical" style="swimlane;fontStyle=0;childLayout=stackLayout;horizontal=1;startSize=26;fillColor=none;horizontalStack=0;resizeParent=1;resizeParentMax=0;resizeLast=0;collapsible=1;marginBottom=0;whiteSpace=wrap;html=1;shadow=1;" vertex="1" parent="1">
          <mxGeometry x="230" y="420" width="150" height="140" as="geometry" />
        </mxCell>
        <mxCell id="9c-LMhL3wqEWrk_R_9PE-4" value="+play() : void" style="text;strokeColor=none;fillColor=none;align=left;verticalAlign=top;spacingLeft=4;spacingRight=4;overflow=hidden;rotatable=0;points=[[0,0.5],[1,0.5]];portConstraint=eastwest;whiteSpace=wrap;" vertex="1" parent="9c-LMhL3wqEWrk_R_9PE-3">
          <mxGeometry y="26" width="150" height="26" as="geometry" />
        </mxCell>
        <mxCell id="9c-LMhL3wqEWrk_R_9PE-5" value="+pause() : void&lt;br&gt;" style="text;strokeColor=none;fillColor=none;align=left;verticalAlign=top;spacingLeft=4;spacingRight=4;overflow=hidden;rotatable=0;points=[[0,0.5],[1,0.5]];portConstraint=eastwest;whiteSpace=wrap;html=1;" vertex="1" parent="9c-LMhL3wqEWrk_R_9PE-3">
          <mxGeometry y="52" width="150" height="48" as="geometry" />
        </mxCell>
        <mxCell id="9c-LMhL3wqEWrk_R_9PE-6" value="&lt;div&gt;+ selecionarMusica:void&lt;/div&gt;&lt;div&gt;&lt;br&gt;&lt;/div&gt;" style="text;strokeColor=none;fillColor=none;align=left;verticalAlign=top;spacingLeft=4;spacingRight=4;overflow=hidden;rotatable=0;points=[[0,0.5],[1,0.5]];portConstraint=eastwest;whiteSpace=wrap;html=1;" vertex="1" parent="9c-LMhL3wqEWrk_R_9PE-3">
          <mxGeometry y="100" width="150" height="40" as="geometry" />
        </mxCell>
        <mxCell id="9c-LMhL3wqEWrk_R_9PE-7" value="&amp;lt;&amp;lt;interface&amp;gt;&amp;gt;&lt;br&gt;Aparelho Telefonico" style="swimlane;fontStyle=0;childLayout=stackLayout;horizontal=1;startSize=26;fillColor=none;horizontalStack=0;resizeParent=1;resizeParentMax=0;resizeLast=0;collapsible=1;marginBottom=0;whiteSpace=wrap;html=1;shadow=1;" vertex="1" parent="1">
          <mxGeometry x="390" y="420" width="140" height="150" as="geometry" />
        </mxCell>
        <mxCell id="9c-LMhL3wqEWrk_R_9PE-8" value="+ligar() : void" style="text;strokeColor=none;fillColor=none;align=left;verticalAlign=top;spacingLeft=4;spacingRight=4;overflow=hidden;rotatable=0;points=[[0,0.5],[1,0.5]];portConstraint=eastwest;whiteSpace=wrap;" vertex="1" parent="9c-LMhL3wqEWrk_R_9PE-7">
          <mxGeometry y="26" width="140" height="26" as="geometry" />
        </mxCell>
        <mxCell id="9c-LMhL3wqEWrk_R_9PE-9" value="+atender() : void" style="text;strokeColor=none;fillColor=none;align=left;verticalAlign=top;spacingLeft=4;spacingRight=4;overflow=hidden;rotatable=0;points=[[0,0.5],[1,0.5]];portConstraint=eastwest;whiteSpace=wrap;html=1;" vertex="1" parent="9c-LMhL3wqEWrk_R_9PE-7">
          <mxGeometry y="52" width="140" height="48" as="geometry" />
        </mxCell>
        <mxCell id="9c-LMhL3wqEWrk_R_9PE-10" value="&lt;div&gt;+ iniciarCorreioVoz :void&lt;/div&gt;&lt;div&gt;&lt;br&gt;&lt;/div&gt;" style="text;strokeColor=none;fillColor=none;align=left;verticalAlign=top;spacingLeft=4;spacingRight=4;overflow=hidden;rotatable=0;points=[[0,0.5],[1,0.5]];portConstraint=eastwest;whiteSpace=wrap;html=1;" vertex="1" parent="9c-LMhL3wqEWrk_R_9PE-7">
          <mxGeometry y="100" width="140" height="50" as="geometry" />
        </mxCell>
        <mxCell id="9c-LMhL3wqEWrk_R_9PE-11" value="&amp;lt;&amp;lt;interface&amp;gt;&amp;gt;&lt;br&gt;Navegar na internet" style="swimlane;fontStyle=0;childLayout=stackLayout;horizontal=1;startSize=26;fillColor=none;horizontalStack=0;resizeParent=1;resizeParentMax=0;resizeLast=0;collapsible=1;marginBottom=0;whiteSpace=wrap;html=1;shadow=1;" vertex="1" parent="1">
          <mxGeometry x="550" y="420" width="140" height="150" as="geometry" />
        </mxCell>
        <mxCell id="9c-LMhL3wqEWrk_R_9PE-12" value="+exibirPagina() : void" style="text;strokeColor=none;fillColor=none;align=left;verticalAlign=top;spacingLeft=4;spacingRight=4;overflow=hidden;rotatable=0;points=[[0,0.5],[1,0.5]];portConstraint=eastwest;whiteSpace=wrap;" vertex="1" parent="9c-LMhL3wqEWrk_R_9PE-11">
          <mxGeometry y="26" width="140" height="26" as="geometry" />
        </mxCell>
        <mxCell id="9c-LMhL3wqEWrk_R_9PE-13" value="+adicionarNovaAba() : void" style="text;strokeColor=none;fillColor=none;align=left;verticalAlign=top;spacingLeft=4;spacingRight=4;overflow=hidden;rotatable=0;points=[[0,0.5],[1,0.5]];portConstraint=eastwest;whiteSpace=wrap;html=1;" vertex="1" parent="9c-LMhL3wqEWrk_R_9PE-11">
          <mxGeometry y="52" width="140" height="48" as="geometry" />
        </mxCell>
        <mxCell id="9c-LMhL3wqEWrk_R_9PE-14" value="&lt;div&gt;+ atualizarPagina:void&lt;/div&gt;&lt;div&gt;&lt;br&gt;&lt;/div&gt;" style="text;strokeColor=none;fillColor=none;align=left;verticalAlign=top;spacingLeft=4;spacingRight=4;overflow=hidden;rotatable=0;points=[[0,0.5],[1,0.5]];portConstraint=eastwest;whiteSpace=wrap;html=1;" vertex="1" parent="9c-LMhL3wqEWrk_R_9PE-11">
          <mxGeometry y="100" width="140" height="50" as="geometry" />
        </mxCell>
        <mxCell id="9c-LMhL3wqEWrk_R_9PE-15" value="«interface»&lt;br&gt;&lt;b&gt;Iphone&lt;/b&gt;" style="html=1;whiteSpace=wrap;verticalAlign=top;" vertex="1" parent="1">
          <mxGeometry x="405" y="190" width="110" height="50" as="geometry" />
        </mxCell>
        <mxCell id="9c-LMhL3wqEWrk_R_9PE-17" value="" style="endArrow=classic;html=1;rounded=0;exitX=0.155;exitY=1.02;exitDx=0;exitDy=0;exitPerimeter=0;" edge="1" parent="1" source="9c-LMhL3wqEWrk_R_9PE-15">
          <mxGeometry width="50" height="50" relative="1" as="geometry">
            <mxPoint x="320" y="350" as="sourcePoint" />
            <mxPoint x="320" y="420" as="targetPoint" />
            <Array as="points">
              <mxPoint x="320" y="420" />
            </Array>
          </mxGeometry>
        </mxCell>
        <mxCell id="9c-LMhL3wqEWrk_R_9PE-22" value="" style="endArrow=classic;html=1;rounded=0;exitX=0.5;exitY=1;exitDx=0;exitDy=0;" edge="1" parent="1" source="9c-LMhL3wqEWrk_R_9PE-15">
          <mxGeometry width="50" height="50" relative="1" as="geometry">
            <mxPoint x="472.98" y="270" as="sourcePoint" />
            <mxPoint x="470" y="413" as="targetPoint" />
            <Array as="points">
              <mxPoint x="460" y="324" />
              <mxPoint x="470" y="413" />
            </Array>
          </mxGeometry>
        </mxCell>
        <mxCell id="9c-LMhL3wqEWrk_R_9PE-25" value="" style="edgeStyle=none;orthogonalLoop=1;jettySize=auto;html=1;rounded=0;entryX=0.636;entryY=0.013;entryDx=0;entryDy=0;entryPerimeter=0;" edge="1" parent="1" target="9c-LMhL3wqEWrk_R_9PE-11">
          <mxGeometry width="100" relative="1" as="geometry">
            <mxPoint x="510" y="240" as="sourcePoint" />
            <mxPoint x="610" y="240" as="targetPoint" />
            <Array as="points">
              <mxPoint x="570" y="340" />
            </Array>
          </mxGeometry>
        </mxCell>
      </root>
    </mxGraphModel>
  </diagram>
</mxfile>
